<?xml version="1.0" encoding="utf-8"?>
<!-- Generator: Adobe Illustrator 21.1.0, SVG Export Plug-In . SVG Version: 6.00 Build 0)  -->
<svg version="1.1" id="Layer_1" xmlns="http://www.w3.org/2000/svg" xmlns:xlink="http://www.w3.org/1999/xlink" x="0px" y="0px"
	 viewBox="0 0 600 600" style="enable-background:new 0 0 600 600;" xml:space="preserve">
<style type="text/css">
	.st0{fill:url(#BackG_1_);}
	.st1{fill:#FFFFFF;}
	.st2{opacity:0.28;fill:url(#Shadow_1_);}
	.st3{fill:#03599C;}
	.st4{fill:#659AD3;}
</style>
<linearGradient id="BackG_1_" gradientUnits="userSpaceOnUse" x1="118.7391" y1="195.349" x2="481.2609" y2="404.651">
	<stop  offset="0" style="stop-color:#659AD3"/>
	<stop  offset="0.1715" style="stop-color:#5C94CE"/>
	<stop  offset="0.4511" style="stop-color:#4484C0"/>
	<stop  offset="0.802" style="stop-color:#1C6AAA"/>
	<stop  offset="1" style="stop-color:#03599C"/>
</linearGradient>
<polygon id="BackG" class="st0" points="481.3,404.7 481.3,195.3 300,90.7 118.7,195.3 118.7,404.7 300,509.3 "/>
<polygon id="HighLight" class="st1" points="151.9,215.3 333.2,110.7 481.3,196.2 481.3,195.3 300,90.7 118.7,195.3 118.7,404.7 
	151.9,423.8 "/>
<linearGradient id="Shadow_1_" gradientUnits="userSpaceOnUse" x1="209.3507" y1="247.3097" x2="481.2747" y2="404.3051">
	<stop  offset="0" style="stop-color:#659AD3"/>
	<stop  offset="0.1715" style="stop-color:#5C94CE"/>
	<stop  offset="0.4511" style="stop-color:#4484C0"/>
	<stop  offset="0.802" style="stop-color:#1C6AAA"/>
	<stop  offset="1" style="stop-color:#03599C"/>
</linearGradient>
<polygon id="Shadow" class="st2" points="300,90.4 299.9,90.4 449.3,176.6 449.3,385.9 268.1,490.5 300,509 481.3,404.3 481.3,195 
	"/>
<g id="Stroke">
	<path d="M201,152.5l8.5-4.9c1.9-1.1,2.5-3.4,1.5-5.3l-0.1-0.1c-1.1-1.9-3.5-2.6-5.4-1.5l-8.5,4.9c-1.9,1.1-2.7,3.6-1.5,5.5
		c0,0,0.1,0.1,0.1,0.1C196.7,153,199.1,153.6,201,152.5z"/>
	<path d="M222.6,460l-99.8-57.6V197.7l62.7-36.2c1.9-1.1,2.4-3.5,1.3-5.4c0-0.1-0.1-0.1-0.1-0.2c-1.1-1.8-3.4-2.4-5.2-1.4
		c-14.3,8.3-66.7,38.5-66.7,38.5V407l103.8,59.9c1.2,0.7,2.6,0.7,3.9,0.1c0,0,0.1,0,0.1,0C225.2,465.4,225.3,461.5,222.6,460z"/>
	<path d="M477.3,197.7v75.4c0,2.6,2.4,4.4,4.9,3.9c0,0,0.1,0,0.1,0c1.8-0.4,3.1-2,3.1-3.9v-80L300,86.1l-79,45.6
		c-1.8,1-2.5,3.3-1.6,5.2l0,0.1c1,2,3.5,2.8,5.5,1.7l75-43.3L477.3,197.7z"/>
	<path d="M477.3,291.5v110.8L300,504.7l-60.3-34.8c-1.5-0.8-3.3-0.7-4.6,0.5l-0.1,0.1c-2,1.8-1.7,5.1,0.7,6.4l64.3,37.1l185.3-107
		V291.5c0-2.5-2.3-4.3-4.8-3.8c0,0-0.1,0-0.1,0C478.6,288.1,477.3,289.7,477.3,291.5z"/>
</g>
<g id="C">
	<path class="st1" d="M379.6,340.3c-14,24.7-40.7,41.3-71,41.3c-45,0-81.6-36.7-81.6-81.6s36.7-81.6,81.6-81.6
		c30.3,0,57,16.7,71,41.7l43.3-25c-22.7-39.7-65.3-66.6-114.3-66.6C236,168.4,177,227.4,177,300s59,131.6,131.6,131.6
		c48.7,0,91.3-26.7,114-66C422.6,365.6,379.6,340.3,379.6,340.3z"/>
	<path d="M194.2,365.7c2.2-0.9,3.1-3.5,2-5.5c-9.6-17.9-15.1-38.5-15.1-60.2c0-70.4,57.3-127.6,127.6-127.6
		c42.9,0,83,21.9,106.5,57.7c1.3,1.9,0.6,4.5-1.3,5.6l-29.6,17.1c-1.8,1-4.1,0.5-5.2-1.2c-15.8-23.1-42.1-37.2-70.4-37.2
		c-11.1,0-21.7,2.1-31.4,6c-1.9,0.8-2.9,2.9-2.3,4.9c0,0,0,0.1,0,0.1c0.7,2.2,3.1,3.2,5.2,2.4c8.8-3.5,18.4-5.4,28.4-5.4
		c27.9,0,53.8,15.2,67.5,39.6l0,0c1.1,1.9,3.5,2.6,5.4,1.5l43.4-25c1.9-1.1,2.5-3.5,1.5-5.4l0,0c-24.2-42.4-69.3-68.7-117.8-68.7
		C233.9,164.4,173,225.2,173,300c0,23.1,5.8,44.9,16.1,64C190.1,365.8,192.2,366.5,194.2,365.7C194.1,365.8,194.1,365.7,194.2,365.7
		z"/>
	<path d="M221.7,393.3c-6.6-6.2-12.6-13-17.8-20.4c-1.1-1.6-3.2-2-5-1.1c0,0-0.1,0-0.1,0.1c-2.1,1.1-2.8,3.7-1.5,5.6
		c5.5,7.9,11.8,15.2,18.9,21.7c1.4,1.3,3.5,1.3,5,0.2c0.1-0.1,0.2-0.1,0.3-0.2C223.3,397.7,223.4,394.9,221.7,393.3z"/>
	<path d="M381.6,336.8c-1.9-1.1-4.3-0.5-5.4,1.5l0,0.1c-13.8,24.2-39.6,39.3-67.5,39.3c-42.8,0-77.6-34.8-77.6-77.6
		c0-27,13.8-50.8,34.8-64.7c1.5-1,2.1-2.8,1.5-4.5c0,0,0-0.1,0-0.1c-0.8-2.5-3.8-3.4-6-2C238.3,244,223,270.3,223,300
		c0,47.2,38.4,85.6,85.6,85.6c28.2,0,54.5-13.9,70.3-36.8c1.2-1.7,3.5-2.2,5.2-1.2l29.4,17.3c1.9,1.1,2.5,3.7,1.3,5.6
		c-23.5,35.4-63.5,57.1-106.2,57.1c-28.3,0-54.4-9.3-75.6-24.9c-1.5-1.1-3.7-1-5,0.3c0,0-0.1,0-0.1,0.1c-1.8,1.7-1.6,4.6,0.4,6
		c22.5,16.6,50.3,26.5,80.4,26.5c48.3,0,93.3-26,117.4-68l0,0c1.1-1.9,0.4-4.3-1.4-5.4L381.6,336.8z"/>
</g>
<rect y="-114.6" class="st3" width="100" height="100"/>
<rect x="115.2" y="-114.6" class="st4" width="100" height="100"/>
</svg>
